<svg width="300" height="100" xmlns="http://www.w3.org/2000/svg">

 <g>
  <title>background</title>
  <rect fill="none" id="canvas_background" height="102" width="302" y="-1" x="-1"/>
 </g>
 <g>
  <title>Layer 1</title>
  <g stroke="null" id="svg_1" fill="none" fill-rule="nonzero">
   <path stroke="null" id="svg_2" fill="#ffffff" d="m29.702541,5.868309c-7.651927,-0.003933 -15.635686,1.707002 -23.693735,3.9263c-1.023229,0.204526 -2.021694,0.869233 -2.549652,1.691269c-0.485365,0.774837 -0.661681,1.552624 -0.813234,2.367776c-0.782527,4.354034 -0.687435,8.629404 -0.524987,13.366923c0.035659,1.084575 0.198108,2.369743 0.708237,3.151463c0.532911,0.789587 1.446189,1.291067 2.536775,1.455278a95.082006,94.386564 0 0 0 4.191968,0.51623l-0.309049,8.552707c-0.047546,0.680441 0.287257,1.245836 0.703284,1.571307c0.372443,0.281223 0.78748,0.406101 1.213412,0.437567c0.851865,0.063914 1.851321,-0.297939 2.347582,-1.236003c2.174237,-4.153441 3.538212,-5.987288 6.257246,-8.746416c7.090291,0.17306 13.28018,-0.218292 20.288256,-0.732555c2.477342,-0.063914 4.178101,-2.074754 4.627806,-3.680476c1.344164,-4.161308 1.553168,-9.298045 1.695806,-14.49083c0.060423,-2.058038 -0.65871,-4.078711 -1.931554,-5.14657c-1.210441,-0.974446 -2.676441,-1.327449 -4.019614,-1.689302c-3.731367,-0.838751 -7.463725,-1.289101 -10.728547,-1.314666zm10.192664,3.254709c1.345154,0.362836 2.530832,0.711906 3.27869,1.314666c1.248081,1.316633 1.206479,2.19275 1.188649,3.613612c-0.140657,5.036441 -0.38433,9.924404 -1.529395,13.62848c-0.493289,1.381531 -1.353079,2.364826 -2.977565,2.513304c-7.139818,0.524097 -13.334659,0.929215 -20.511127,0.726656a1.022238,1.014761 0 0 0 -0.755783,0.296955c-3.015206,3.022651 -4.557478,5.122971 -6.855532,9.51437c-0.053489,0.100296 -0.169382,0.161261 -0.31202,0.172077c-0.096082,-0.004916 -0.134714,-0.078664 -0.140657,-0.145528l0.31103,-9.274446c0.01882,-0.500498 -0.397207,-0.978379 -0.89842,-1.032461a94.57683,93.885083 0 0 1 -5.012136,-0.609643c-0.719133,-0.109146 -0.984597,-0.304822 -1.181715,-0.595877c-0.342727,-0.811219 -0.334803,-1.3127 -0.361547,-2.092453c-0.160468,-4.695237 -0.239711,-8.798531 0.486356,-12.881175c0.067357,-0.603744 0.295181,-1.221253 0.536873,-1.737484c0.400178,-0.621443 1.013323,-0.712889 1.628449,-0.882016c7.880742,-2.160301 15.591111,-3.775856 22.849794,-3.780772c3.558022,0.127828 7.294342,0.481815 10.256059,1.251736zm-27.219069,7.954863c-1.085633,1.291067 -0.977664,3.044284 -0.138676,4.218339c0.437819,0.61456 1.121292,1.109158 1.953346,1.221253c1.08068,0.088497 1.766134,-0.34612 2.506068,-0.845634c1.340202,-1.156356 1.475906,-3.174079 0.456639,-4.631323c-0.519043,-0.742388 -1.349116,-1.187821 -2.197019,-1.219287c-1.160914,0.0118 -1.949384,0.526063 -2.580359,1.255669l0,0.000983zm11.743851,-1.054093c-1.08167,0.034415 -1.956318,0.777787 -2.490219,1.580156c-0.611164,0.917415 -0.967758,2.065904 -0.473478,3.191778c0.950919,2.166201 4.236543,2.139652 5.547028,-0.061948c0.60423,-1.014761 0.449705,-2.168167 0,-3.004952c-0.447724,-0.835801 -1.125254,-1.517225 -2.110842,-1.673569a2.470409,2.45234 0 0 0 -0.472488,-0.031465zm9.533955,0.203542c-0.336784,-0.007866 -0.683473,0.023599 -1.00837,0.109146c-1.299589,0.344154 -2.406023,1.675536 -2.238622,3.379588c0.085187,0.857434 0.482393,1.693235 1.198554,2.269447c0.716161,0.575228 1.756229,0.832852 2.852757,0.609643c1.259968,-0.255657 2.040514,-1.263535 2.301026,-2.236998c0.260512,-0.973463 0.195137,-1.965608 -0.410084,-2.769944a3.437176,3.412036 0 0 0 -2.694271,-1.360881l-0.000991,0zm-18.785605,1.595889c0.242682,0.001967 0.433857,0.078664 0.630974,0.359886c0.440791,0.631276 0.317964,1.588023 -0.126789,1.971508c-0.442772,0.383485 -0.719133,0.416917 -0.913279,0.391352c-0.194146,-0.026549 -0.391264,-0.159294 -0.56758,-0.407084c-0.336784,-0.471982 -0.435838,-1.23502 0.006934,-1.779765c0.235749,-0.310721 0.668615,-0.504431 0.97073,-0.535896l-0.000991,0zm9.393298,0.219275c0.037641,0.0059 0.459611,0.248774 0.661681,0.625376c0.20207,0.376602 0.239711,0.726656 0.047546,1.048193c-0.571542,0.959697 -1.786936,0.700107 -1.971176,0.282206c-0.069338,-0.159294 -0.016839,-0.799419 0.316973,-1.29795c0.331831,-0.500498 0.749839,-0.688307 0.944976,-0.658808l0,0.000983zm10.464072,0.735505c0.061414,0.081614 0.210985,0.629309 0.095092,1.063926c-0.116884,0.434617 -0.307068,0.703056 -0.772622,0.797453c-0.596306,0.121929 -0.931108,0 -1.181715,-0.203542c-0.251597,-0.201576 -0.42098,-0.542779 -0.45763,-0.907582c-0.089149,-0.904632 0.23773,-1.114074 0.756773,-1.251736c0.60423,-0.147494 1.287703,0.110129 1.560102,0.501481z"/>
   <path stroke="null" id="svg_3" fill="#ffffff" d="m59.06514,9.916538c0.015849,-0.255657 0.10995,-0.485748 0.284285,-0.68929a0.866723,0.860384 0 0 1 0.694369,-0.304822l6.761431,0c0.227824,0 0.462583,0.094396 0.705265,0.282206a0.874647,0.86825 0 0 1 0.364519,0.711906l0,10.711041l11.312966,0l0,-10.711041c0,-0.27139 0.095092,-0.504431 0.284285,-0.700107c0.190184,-0.196659 0.435838,-0.294989 0.739934,-0.294989l6.670301,0c0.303105,0 0.56857,0.075714 0.796395,0.226158c0.227824,0.151428 0.341737,0.392335 0.341737,0.723706l0,31.61296c0,0.331371 -0.099054,0.580145 -0.297162,0.745338c-0.196127,0.166177 -0.454658,0.248774 -0.772622,0.248774l-6.738649,0c-0.303105,0 -0.54975,-0.082597 -0.739934,-0.248774c-0.189193,-0.165194 -0.284285,-0.412984 -0.284285,-0.745338l0,-12.83496l-11.312966,0l0,12.83496c0,0.316621 -0.103016,0.560479 -0.307068,0.734522c-0.205042,0.17306 -0.482393,0.25959 -0.832054,0.25959l-6.692093,0c-0.636918,0 -0.962806,-0.294005 -0.978654,-0.881033l0,-31.680807zm62.280249,32.178355c-0.197118,0.165194 -0.406122,0.270406 -0.626022,0.315638a3.093459,3.070833 0 0 1 -0.625031,0.068831l-3.437176,0c-0.273389,0 -0.509138,-0.049165 -0.706256,-0.147494c-0.198108,-0.09833 -0.364519,-0.230091 -0.501214,-0.395285a2.361449,2.344177 0 0 1 -0.340746,-0.565395a4.837801,4.802417 0 0 1 -0.227824,-0.654875l-0.705265,-2.892856c-0.227824,0.467066 -0.557674,0.998045 -0.990541,1.592939a8.414644,8.353098 0 0 1 -1.650241,1.671603c-0.667624,0.521147 -1.46501,0.95773 -2.390175,1.311717c-0.926156,0.353986 -1.988015,0.53098 -3.18756,0.53098c-1.729484,0 -3.300482,-0.331371 -4.712002,-0.994112a10.800856,10.721857 0 0 1 -3.607549,-2.71193c-0.993512,-1.144556 -1.764153,-2.481839 -2.309941,-4.011847c-0.546778,-1.528042 -0.820168,-3.159329 -0.820168,-4.890913l0,-14.801552c0,-0.572278 0.125799,-1.004928 0.376405,-1.298934c0.249616,-0.294005 0.647814,-0.440517 1.194592,-0.440517l5.25779,0c0.653757,0 1.100491,0.108163 1.343173,0.327438c0.242682,0.218292 0.364519,0.644059 0.364519,1.276318l0,14.710105c0,0.648975 0.148581,1.262552 0.443762,1.842696c0.296172,0.580145 0.686445,1.091458 1.1728,1.535908c0.485365,0.44445 1.035115,0.795486 1.650241,1.051143c0.614135,0.255657 1.240157,0.383485 1.878065,0.383485c0.545788,0 1.111387,-0.127828 1.695806,-0.383485a6.30083,6.254745 0 0 0 1.615572,-1.028527c0.493289,-0.428717 0.899411,-0.934131 1.218365,-1.514276c0.318954,-0.580145 0.477441,-1.193721 0.477441,-1.84073l0,-14.688473c0,-0.255657 0.049527,-0.511314 0.148581,-0.767954c0.099054,-0.255657 0.246645,-0.452316 0.443762,-0.588011c0.197118,-0.119962 0.383339,-0.202559 0.557674,-0.247791c0.174335,-0.045232 0.376405,-0.068831 0.603239,-0.068831l5.144869,0c0.651776,0 1.122283,0.159294 1.41053,0.474932c0.288247,0.316621 0.432866,0.738455 0.432866,1.265502l0,25.286435c0,0.285156 -0.064385,0.549662 -0.193155,0.79057s-0.307068,0.4297 -0.534892,0.564412l0.135704,-0.066864zm26.428618,-3.119014c-0.410084,0.407084 -0.86177,0.843668 -1.354069,1.310733c-0.493289,0.467066 -1.036106,0.904632 -1.627458,1.310733a9.212029,9.144651 0 0 1 -1.911744,1.005912a6.039327,5.995154 0 0 1 -2.208906,0.395285c-2.063296,0 -3.964144,-0.383485 -5.702543,-1.152423a13.64668,13.546866 0 0 1 -4.484178,-3.152446c-1.252044,-1.333349 -2.230698,-2.903672 -2.935963,-4.711953c-0.706256,-1.807298 -1.058888,-3.75029 -1.058888,-5.829961c0,-2.09442 0.352633,-4.041346 1.058888,-5.840777c0.705265,-1.799431 1.683919,-3.366805 2.935963,-4.700154a13.506023,13.407238 0 0 1 4.484178,-3.140647c1.738399,-0.761071 3.639247,-1.141606 5.702543,-1.141606c0.835026,0 1.597742,0.120945 2.288149,0.361853a8.429502,8.367847 0 0 1 1.888961,0.926265c0.569561,0.376602 1.092566,0.802369 1.570998,1.276318c0.477441,0.474932 0.929127,0.938064 1.354069,1.39038l0,-10.327556c0,-0.481815 0.148581,-0.887916 0.443762,-1.219287c0.296172,-0.332354 0.739934,-0.497548 1.332277,-0.497548l5.121096,0c0.198108,0 0.406122,0.041298 0.626022,0.123895c0.2199,0.08358 0.42098,0.199609 0.60423,0.351037c0.181269,0.150444 0.32886,0.331371 0.442772,0.541796c0.113912,0.211409 0.171364,0.44445 0.171364,0.700107l0,33.783094c0,1.160289 -0.614135,1.740434 -1.844387,1.740434l-4.461396,0c-0.303105,0 -0.538854,-0.039332 -0.705265,-0.114062a1.119311,1.111124 0 0 1 -0.42197,-0.327438a2.297064,2.280263 0 0 1 -0.307068,-0.541796a16.967963,16.843857 0 0 0 -0.340746,-0.757138l-0.660691,-1.763049zm-13.089005,-10.82412a8.310637,8.249852 0 0 0 0.466545,2.791577c0.31103,0.8653 0.754792,1.615555 1.332277,2.247814a6.323612,6.27736 0 0 0 2.082117,1.502476c0.812243,0.369719 1.711654,0.553596 2.698233,0.553596c0.97073,0 1.884999,-0.17306 2.742807,-0.51918a6.991237,6.940102 0 0 0 2.241594,-1.435612a7.187364,7.134794 0 0 0 1.537319,-2.157351c0.386311,-0.828918 0.603239,-1.717818 0.648804,-2.666698l0,-0.316621a7.191326,7.138727 0 0 0 -0.546778,-2.756178a7.356746,7.302938 0 0 0 -1.513546,-2.304845a7.173496,7.121028 0 0 0 -2.276263,-1.570323a6.911003,6.860455 0 0 0 -2.833937,-0.576211c-0.986579,0 -1.88599,0.191743 -2.698233,0.576211c-0.812243,0.383485 -1.505622,0.907582 -2.082117,1.570323a7.167553,7.115128 0 0 0 -1.332277,2.304845a8.271015,8.21052 0 0 0 -0.465554,2.756178l-0.000991,0zm48.259145,10.82412c-0.410084,0.407084 -0.86177,0.843668 -1.35506,1.310733c-0.493289,0.467066 -1.036106,0.904632 -1.627458,1.310733a9.212029,9.144651 0 0 1 -1.911744,1.005912a6.039327,5.995154 0 0 1 -2.208906,0.395285c-2.063296,0 -3.964144,-0.383485 -5.701553,-1.152423a13.64668,13.546866 0 0 1 -4.485168,-3.152446c-1.251053,-1.333349 -2.230698,-2.903672 -2.935963,-4.711953c-0.705265,-1.807298 -1.058888,-3.75029 -1.058888,-5.829961c0,-2.09442 0.353623,-4.041346 1.058888,-5.840777s1.683919,-3.366805 2.935963,-4.700154a13.506023,13.407238 0 0 1 4.485168,-3.140647c1.737408,-0.761071 3.638256,-1.141606 5.701553,-1.141606c0.835026,0 1.597742,0.120945 2.288149,0.361853a8.429502,8.367847 0 0 1 1.888961,0.926265c0.569561,0.376602 1.092566,0.802369 1.570998,1.276318c0.478431,0.474932 0.929127,0.938064 1.354069,1.39038l0,-10.327556c0,-0.481815 0.148581,-0.887916 0.443762,-1.219287c0.297162,-0.332354 0.739934,-0.497548 1.332277,-0.497548l5.121096,0c0.198108,0 0.406122,0.041298 0.626022,0.123895c0.220891,0.08358 0.42197,0.199609 0.60423,0.351037c0.181269,0.150444 0.32985,0.331371 0.443762,0.541796c0.112922,0.211409 0.170373,0.44445 0.170373,0.700107l0,33.783094c0,1.160289 -0.614135,1.740434 -1.844387,1.740434l-4.461396,0c-0.303105,0 -0.538854,-0.039332 -0.705265,-0.114062a1.119311,1.111124 0 0 1 -0.42098,-0.327438a2.297064,2.280263 0 0 1 -0.307068,-0.541796a16.967963,16.843857 0 0 0 -0.341737,-0.757138l-0.660691,-1.763049l0.000991,0zm-13.089996,-10.82412a8.310637,8.249852 0 0 0 0.466545,2.791577c0.31202,0.8653 0.755783,1.615555 1.332277,2.247814a6.323612,6.27736 0 0 0 2.083107,1.502476c0.812243,0.369719 1.710664,0.553596 2.697242,0.553596c0.97073,0 1.884999,-0.17306 2.742807,-0.51918a6.991237,6.940102 0 0 0 2.242584,-1.435612a7.187364,7.134794 0 0 0 1.535338,-2.157351c0.387301,-0.828918 0.60423,-1.717818 0.649795,-2.666698l0,-0.316621a7.191326,7.138727 0 0 0 -0.546778,-2.756178a7.356746,7.302938 0 0 0 -1.513546,-2.304845a7.173496,7.121028 0 0 0 -2.276263,-1.570323a6.911003,6.860455 0 0 0 -2.833937,-0.576211c-0.986579,0 -1.88599,0.191743 -2.697242,0.576211c-0.812243,0.383485 -1.506612,0.907582 -2.083107,1.570323a7.167553,7.115128 0 0 0 -1.332277,2.304845a8.271015,8.21052 0 0 0 -0.465554,2.756178l-0.000991,0zm27.885703,-21.173308c0,-0.481815 0.120846,-0.887916 0.363528,-1.219287c0.243673,-0.332354 0.660691,-0.497548 1.252044,-0.497548l5.576744,0c0.152543,0 0.31202,0.041298 0.478431,0.123895a1.683919,1.671603 0 0 1 0.466545,0.351037c0.144619,0.150444 0.265465,0.331371 0.364519,0.541796c0.099054,0.211409 0.148581,0.44445 0.148581,0.700107l0,33.760478c0,0.572278 -0.163439,1.004928 -0.490318,1.298934c-0.325888,0.294005 -0.746868,0.440517 -1.262939,0.440517l-5.281563,0c-0.591353,0 -1.00837,-0.147494 -1.252044,-0.440517c-0.242682,-0.294005 -0.363528,-0.727639 -0.363528,-1.298934l0,-33.760478zm10.448224,53.238584a15.165179,15.054259 0 0 1 -4.50696,2.858441a13.7388,13.638313 0 0 1 -5.304346,1.028527c-2.080136,0 -4.044378,-0.376602 -5.895699,-1.13079a15.347438,15.235185 0 0 1 -4.871479,-3.128847a15.128529,15.017877 0 0 1 -3.323264,-4.711953c-0.820168,-1.807298 -1.229261,-3.772906 -1.229261,-5.897808c0,-1.325483 0.162449,-2.609667 0.489327,-3.852553a15.303854,15.19192 0 0 1 1.388738,-3.4907a14.912591,14.803518 0 0 1 2.185133,-2.994136a13.824977,13.723859 0 0 1 2.879502,-2.339261a14.191477,14.087679 0 0 1 3.459959,-1.514276a13.950776,13.848738 0 0 1 3.937399,-0.541796c1.259968,0 2.481305,0.166177 3.665001,0.497548c1.183696,0.331371 2.296073,0.798436 3.335151,1.400213c1.040068,0.60276 1.990987,1.326466 2.85672,2.170134a14.755095,14.647174 0 0 1 2.230698,2.767978a13.451543,13.353157 0 0 1 1.446189,3.208494c0.340746,1.137673 0.51211,2.308779 0.51211,3.513316c0,0.783687 -0.011886,1.423812 -0.034669,1.92136c-0.022782,0.496564 -0.140657,0.892833 -0.352633,1.185855c-0.212966,0.294989 -0.564608,0.497548 -1.058888,0.609643c-0.493289,0.114062 -1.218365,0.17011 -2.173246,0.17011l-16.389487,0c0.151553,0.96363 0.45862,1.769932 0.921203,2.418908a5.786739,5.744414 0 0 0 1.604676,1.546724c0.607201,0.384469 1.252044,0.658808 1.935517,0.825968a8.162056,8.102357 0 0 0 1.934526,0.247791c0.546778,0 1.107425,-0.057031 1.683919,-0.169127a12.063796,11.97556 0 0 0 1.674014,-0.452316a9.466598,9.397358 0 0 0 1.478877,-0.655858c0.447724,-0.247791 0.808281,-0.508364 1.08167,-0.77877c0.242682,-0.196659 0.451687,-0.34317 0.626022,-0.4415c0.174335,-0.09833 0.360557,-0.146511 0.557674,-0.146511c0.198108,0 0.398197,0.068831 0.60423,0.203542a4.754596,4.71982 0 0 1 0.693379,0.587028l2.412957,2.71193c0.166411,0.196659 0.273389,0.373652 0.318954,0.53098c0.045565,0.158311 0.068347,0.320554 0.068347,0.485748c0,0.301872 -0.084196,0.561462 -0.250607,0.779754a2.862663,2.841725 0 0 1 -0.592343,0.576211l0.000991,0zm-10.949437,-18.823231c-0.592343,0 -1.164876,0.117012 -1.718588,0.350053a6.48507,6.437638 0 0 0 -1.560102,0.938064c-0.485365,0.391352 -0.921203,0.835801 -1.308504,1.333349a8.236346,8.176105 0 0 0 -0.944976,1.514276l11.63192,0a13.40796,13.309892 0 0 0 -1.035115,-1.627355a7.014019,6.962718 0 0 0 -1.274826,-1.310733a5.505425,5.465158 0 0 0 -1.639345,-0.881033c-0.614135,-0.211409 -1.331287,-0.316621 -2.150464,-0.316621z"/>
  </g>
 </g>
</svg>